<?xml version="1.0" standalone="no"?>
<!DOCTYPE svg PUBLIC "-//W3C//DTD SVG 1.1//EN" "http://www.w3.org/Graphics/SVG/1.1/DTD/svg11.dtd" >
<svg xmlns="http://www.w3.org/2000/svg">
<metadata>
Created by FontForge 20120731 at Mon Aug 15 10:50:05 2016
 By admin
</metadata>
<defs>
<font id="iconfont" horiz-adv-x="1024" >
  <font-face 
    font-family="iconfont"
    font-weight="500"
    font-stretch="normal"
    units-per-em="1024"
    panose-1="2 0 6 3 0 0 0 0 0 0"
    ascent="896"
    descent="-128"
    x-height="792"
    bbox="24 -128.057 995 896.211"
    underline-thickness="50"
    underline-position="-100"
    unicode-range="U+0078-E616"
  />
<missing-glyph horiz-adv-x="374" 
d="M34 0v682h272v-682h-272zM68 34h204v614h-204v-614z" />
    <glyph glyph-name=".notdef" horiz-adv-x="374" 
d="M34 0v682h272v-682h-272zM68 34h204v614h-204v-614z" />
    <glyph glyph-name=".null" horiz-adv-x="0" 
 />
    <glyph glyph-name="nonmarkingreturn" horiz-adv-x="341" 
 />
    <glyph glyph-name="x" unicode="x" horiz-adv-x="1001" 
d="M281 543q-27 -1 -53 -1h-83q-18 0 -36.5 -6t-32.5 -18.5t-23 -32t-9 -45.5v-76h912v41q0 16 -0.5 30t-0.5 18q0 13 -5 29t-17 29.5t-31.5 22.5t-49.5 9h-133v-97h-438v97zM955 310v-52q0 -23 0.5 -52t0.5 -58t-10.5 -47.5t-26 -30t-33 -16t-31.5 -4.5q-14 -1 -29.5 -0.5
t-29.5 0.5h-32l-45 128h-439l-44 -128h-29h-34q-20 0 -45 1q-25 0 -41 9.5t-25.5 23t-13.5 29.5t-4 30v167h911zM163 247q-12 0 -21 -8.5t-9 -21.5t9 -21.5t21 -8.5q13 0 22 8.5t9 21.5t-9 21.5t-22 8.5zM316 123q-8 -26 -14 -48q-5 -19 -10.5 -37t-7.5 -25t-3 -15t1 -14.5
t9.5 -10.5t21.5 -4h37h67h81h80h64h36q23 0 34 12t2 38q-5 13 -9.5 30.5t-9.5 34.5q-5 19 -11 39h-368zM336 498v228q0 11 2.5 23t10 21.5t20.5 15.5t34 6h188q31 0 51.5 -14.5t20.5 -52.5v-227h-327z" />
    <glyph glyph-name="uniE600" unicode="&#xe600;" 
d="M32 697q0 -25 17.5 -43t42.5 -18t43 18t18 43t-18 42.5t-43 17.5t-42.5 -17.5t-17.5 -42.5zM24 396q0 -25 18 -43t43 -18t42.5 18t17.5 43t-17.5 43t-42.5 18t-43 -18t-18 -43zM24 94q0 -25 18 -43t43 -18t42.5 18t17.5 43t-17.5 42.5t-42.5 17.5t-43 -17.5t-18 -42.5z
M995 699q0 -24 -15.5 -40.5t-37.5 -16.5h-629q-23 0 -38.5 17t-15.5 40q0 24 15.5 41t38.5 17h629q22 0 37.5 -17t15.5 -41zM995 399q0 -24 -15.5 -41t-37.5 -17h-629q-23 0 -38.5 17t-15.5 41t15.5 41t38.5 17h629q22 0 37.5 -17t15.5 -41zM995 97q0 -24 -15.5 -41
t-37.5 -17h-629q-23 0 -38.5 17t-15.5 41t15.5 40.5t38.5 16.5h629q22 0 37.5 -16.5t15.5 -40.5z" />
    <glyph glyph-name="uniE601" unicode="&#xe601;" 
d="M512 832q-91 0 -174 -35.5t-143 -95.5t-95.5 -143t-35.5 -174t35.5 -174t95.5 -143t143 -95t174 -35t174 35t142.5 95t95 143t35.5 174t-35.5 174t-95 143t-142.5 95.5t-174 35.5zM511.5 20q-98.5 0 -182.5 49t-132.5 132.5t-48.5 182.5t48.5 183t132.5 132.5t182.5 48.5
t182.5 -48.5t132.5 -132.5t48.5 -183t-48.5 -182.5t-132.5 -132.5t-182.5 -49zM511.5 524q-17.5 0 -29.5 -12t-12 -30v-308q0 -17 12 -29.5t29.5 -12.5t30 12.5t12.5 29.5v308q0 18 -12.5 30t-30 12zM511.5 657q-17.5 0 -29.5 -12t-12 -29.5t12 -30t29.5 -12.5t30 12.5
t12.5 30t-12.5 29.5t-30 12z" />
    <glyph glyph-name="uniE602" unicode="&#xe602;" 
d="M881 534h74v262q0 16 -11 27t-26 11h-258v-75h221v-225zM143 759h221v75h-258q-15 0 -26 -11t-11 -27v-262h74v225zM143 234h-74v-262q0 -16 11 -27t26 -11h258v75h-221v225zM881 9h-221v-75h258q15 0 26 11t11 27v262h-74v-225zM955 422h-886q-15 0 -26 -11t-11 -27
t11 -26.5t26 -10.5h886q15 0 26 10.5t11 26.5t-11 27t-26 11z" />
    <glyph glyph-name="uniE603" unicode="&#xe603;" 
d="M604 -81q106 22 186.5 95.5t116 178.5t15.5 216q-18 99 -89 182q-10 11 -16 16.5t-15 11.5t-19 4.5t-20 -9.5q-8 -6 -12 -12.5t-1 -15t4 -12t8.5 -15t8.5 -11.5q2 -4 7 -9.5t7 -8.5q76 -105 69 -226.5t-94 -211.5q-86 -91 -209 -104.5t-228 56.5q-105 69 -139 186.5
t16 235.5q36 86 123 142.5t164 43.5q1 -7 -2 -13.5t-10 -14t-9 -10.5q-3 -5 -14.5 -19t-16.5 -21.5t-3.5 -19.5t14.5 -23q10 -8 19.5 -9.5t17.5 3.5t14 11t14.5 16t13.5 15q2 2 19 23q9 11 24 29q18 22 25.5 31t16 24t11 19.5t0.5 16.5t-6 16l-17 17q-13 13 -23.5 21
t-35.5 26q-13 10 -21 16q-7 6 -22 22t-25.5 24.5t-26 9t-31.5 -16.5q-11 -12 -11.5 -22.5t8 -19.5t18.5 -16.5t19.5 -18t11.5 -21.5q-91 -31 -98 -34q-73 -28 -131.5 -82t-91.5 -121t-43.5 -143t12.5 -149q32 -106 108 -183t179 -108t210 -8z" />
    <glyph glyph-name="uniE604" unicode="&#xe604;" 
d="M755 683l-243 -242l-243 242q-10 10 -23.5 10t-23.5 -9.5t-10 -23.5t10 -24l243 -243l-243 -243q-10 -9 -10 -23t10 -24t23.5 -10t23.5 10l243 243l243 -243q10 -10 23.5 -10t23.5 10t10 24t-10 23l-243 243l243 243q10 10 10 24t-10 23.5t-23.5 9.5t-23.5 -10z" />
    <glyph glyph-name="uniE605" unicode="&#xe605;" 
d="M512 896q-95 0 -176.5 -46t-128.5 -124.5t-47 -170.5q0 -33 6.5 -63t21.5 -59.5t26 -48t33 -49.5q22 -34 33.5 -53t27 -50t22 -63.5t6.5 -68.5v-171q0 -12 7.5 -22t19.5 -14q66 -21 149 -21q88 0 149 21q12 4 19.5 14t7.5 22v171q0 37 6.5 69t22 63t27 50t33.5 53
q29 42 43.5 66.5t29 67.5t14.5 86q0 92 -47 170.5t-128.5 124.5t-176.5 46zM512 -52q-49 0 -98 10v94q53 -9 98 -9t98 9v-94q-49 -10 -98 -10zM712 376q-22 -33 -34 -52.5t-29 -52.5t-26 -68t-12 -73q-29 -6 -60 -9v210q11 -4 20 -4q24 0 41 16.5t17 40.5t-17 40.5
t-41.5 16.5t-41.5 -16.5t-17 -40.5q0 24 -17 40.5t-41.5 16.5t-41.5 -16.5t-17 -40.5t17 -40.5t41 -16.5q9 0 20 4v-210q-31 3 -60 9q-3 38 -12 73t-26 68t-28.5 52.5t-34.5 52.5q-26 38 -38 59t-24 54t-12 66q0 109 80.5 187t193.5 78t193.5 -78t80.5 -187q0 -33 -12 -66
t-24 -53.5t-38 -59.5z" />
    <glyph glyph-name="uniE606" unicode="&#xe606;" 
d="M674 393q-13 12 -28.5 12t-25.5 -12l-90 -108l-180 216q-12 14 -27.5 14t-26.5 -14l-125 -180l-5 -5q-3 -3 -4 -4.5t-3 -5t-3 -6t-2 -6.5t-1 -9l18 -179l556 35v162q0 7 -3 13t-8.5 14.5t-6.5 8.5zM630 490q29 1 48.5 22.5t18.5 50.5q-1 30 -22.5 50t-49.5 19
q-28 -2 -48 -23.5t-18 -50.5q1 -30 22 -50t49 -18zM745 752l-646 -18q-22 -1 -38.5 -17t-15.5 -37l36 -754q1 -22 17 -38.5t37 -15.5l628 36q23 1 39 17t15 37l-18 736q-1 22 -17 38.5t-37 15.5zM135 70l-36 610l646 18l18 -592zM925 824l-647 72q-19 2 -35 -15t-18 -39
l-18 -72h53l18 72l647 -72l-72 -593v-197q16 1 25.5 16.5t10.5 37.5l90 718q2 21 -16 45t-38 27z" />
    <glyph glyph-name="uniE607" unicode="&#xe607;" 
d="M600 871v-161q-18 0 -34 -0.5t-51.5 -4t-66 -10.5t-71 -21t-73.5 -33t-66.5 -49.5t-56 -68.5t-37 -92t-14.5 -117q0 -158 100 -275t249 -138q-93 20 -154 96.5t-61 176.5q0 42 9 77t22.5 60t35 45t42 32.5t49 21.5t49 13.5t49 7t43.5 3t37 0.5v-189l313 312z" />
    <glyph glyph-name="uniE608" unicode="&#xe608;" 
d="M506 833q-92 -1 -174.5 -37.5t-141.5 -97.5t-93.5 -144.5t-33.5 -174.5t38 -174t97.5 -142t144 -93.5t175 -33t174 38t142 97.5t93.5 144.5t33 174.5t-37.5 173.5t-97.5 142t-144.5 94t-174.5 32.5zM555 684q59 0 59 -57q0 -30 -22 -51.5t-59 -21.5q-32 0 -48 15.5
t-15 42.5q0 27 22 49.5t63 22.5zM438 104q-58 0 -32 103l36 147q9 33 0 33q-7 0 -32 -10.5t-42 -21.5l-15 25q53 45 111.5 73t88.5 28q23 0 28 -25.5t-7 -68.5l-41 -155q-10 -37 3 -37q9 0 29.5 9.5t40.5 25.5l18 -23q-50 -50 -103 -76.5t-83 -26.5z" />
    <glyph glyph-name="uniE609" unicode="&#xe609;" 
d="M770 306q-38 0 -71.5 -16.5t-55.5 -46.5l-249 125q7 21 7 43q0 25 -8 48l248 124q22 -31 56 -48.5t73 -17.5q65 0 111.5 46.5t46.5 112t-46.5 111.5t-112 46t-112 -46t-46.5 -112q0 -9 1 -18l-261 -131q-46 44 -109 44q-65 0 -111.5 -46.5t-46.5 -112t46.5 -112
t112 -46.5t111.5 47l259 -130q-2 -11 -2 -22q0 -65 46.5 -111.5t112 -46.5t112 46.5t46.5 112t-46.5 111.5t-111.5 46z" />
    <glyph glyph-name="uniE60A" unicode="&#xe60a;" 
d="M510 834q-91 0 -174 -35.5t-143 -95.5t-95.5 -143t-35.5 -174t35.5 -174t95.5 -143t143 -95.5t174 -35.5t174 35.5t143 95.5t95.5 143t35.5 174t-35.5 174t-95.5 143t-143 95.5t-174 35.5zM694 261q12 -12 12 -29.5t-12 -29.5t-29.5 -12t-29.5 12l-125 124l-124 -124
q-12 -12 -29.5 -12t-30 12t-12.5 29.5t12 29.5l125 125l-125 124q-12 12 -12 29.5t12.5 30t30 12.5t29.5 -12l124 -125l125 125q12 12 29.5 12t29.5 -12.5t12 -30t-12 -29.5l-124 -124z" />
    <glyph glyph-name="uniE60B" unicode="&#xe60b;" 
d="M719 641h-414q-36 0 -62 -26t-26 -62v-250q0 -36 26 -61.5t62 -25.5h132l5 -111l129 111h148q36 0 62 25.5t26 61.5v250q0 36 -26 62t-62 26zM354.5 373q-17.5 0 -29.5 12t-12 29t12 29.5t29.5 12.5t29.5 -12.5t12 -29.5t-12 -29t-29.5 -12zM512 373q-17 0 -29.5 12
t-12.5 29t12.5 29.5t29.5 12.5t29.5 -12.5t12.5 -29.5t-12.5 -29t-29.5 -12zM669.5 373q-17.5 0 -29.5 12t-12 29t12 29.5t29.5 12.5t29.5 -12.5t12 -29.5t-12 -29t-29.5 -12z" />
    <glyph glyph-name="uniE60C" unicode="&#xe60c;" 
d="M324 237l42 -42l102 37l-107 107zM513.5 833q-91.5 0 -174.5 -35.5t-143.5 -96t-96 -143.5t-35.5 -174.5t35.5 -174.5t96 -143t143.5 -95.5t174.5 -35.5t174.5 35.5t143 95.5t95.5 143t35.5 174.5t-35.5 174.5t-95.5 143.5t-143 96t-174.5 35.5zM491 209v1q-3 -2 -5 -3
l-206 -75q-9 -3 -16 3q-7 7 -3 16l75 206q1 2 3 5h-1l186 186l37 -37l-146 -145q-3 -4 -3 -9t3.5 -8.5t8.5 -3.5t8 4l146 145l45 -45l-145 -145q-8 -8 0 -17q4 -3 9 -3t8 3l145 145l37 -37zM751 470l-58 -58l-65 64l-87 88l58 58q16 16 38 16t38 -16l76 -77q16 -15 16 -37.5
t-16 -37.5z" />
    <glyph glyph-name="uniE60D" unicode="&#xe60d;" 
d="M351 380q0 9 6 14.5t14 5.5h278q8 0 14 -5.5t6 -14.5q0 -8 -5.5 -14t-14.5 -6h-278q-8 0 -14 6t-6 14zM351 380z" />
    <glyph glyph-name="uniE60E" unicode="&#xe60e;" 
d="M790 353l-278 330l-278 -330h181v-268h194v268h181z" />
    <glyph glyph-name="uniE60F" unicode="&#xe60f;" 
d="M624 538h-224q-17 0 -29.5 -12.5t-12.5 -29.5v-224q0 -17 12.5 -29.5t29.5 -12.5h224q17 0 29.5 12.5t12.5 29.5v224q0 17 -12.5 29.5t-29.5 12.5zM512 832q-122 0 -225 -60t-163 -163t-60 -225t60 -225t163 -163t225 -60t225 60t163 163t60 225t-60 225t-163 163
t-225 60zM512 8q-156 0 -266 110t-110 266t110 266t266 110q102 0 188.5 -50.5t137 -137t50.5 -188.5t-50.5 -188.5t-137 -137t-188.5 -50.5z" />
    <glyph glyph-name="uniE610" unicode="&#xe610;" horiz-adv-x="1025" 
d="M512 834q-92 0 -175 -35.5t-143.5 -96t-96 -143.5t-35.5 -175t35.5 -175t96 -143.5t143.5 -96t175 -35.5t175 35.5t143.5 96t96 143.5t35.5 175t-35.5 175t-96 143.5t-143.5 96t-175 35.5zM770 501l-291 -291q-10 -10 -24 -12t-25 5q-5 3 -9 7l-167 167q-12 12 -12 29
t12 29t29 12t28 -12l139 -139l262 262q12 12 29 12t29 -12t12 -28.5t-12 -28.5z" />
    <glyph glyph-name="uniE612" unicode="&#xe612;" 
d="M632 537l-121 -121l-119 121q-7 6 -16.5 6t-16.5 -6q-6 -7 -6 -16.5t6 -16.5l121 -120l-121 -120q-6 -7 -6 -16.5t6 -16.5q7 -6 16.5 -6t16.5 6l120 121l120 -121q7 -6 16.5 -6t16.5 6q6 7 6 16.5t-6 16.5l-121 120l121 120q6 7 6 16.5t-6 16.5q-8 6 -17.5 6t-15.5 -6z
M632 537z" />
    <glyph glyph-name="uniE613" unicode="&#xe613;" 
d="M930 30h-556q-14 0 -23.5 10t-9.5 23v204h64v-173h492v608h-492v-224h-64v255q0 14 9.5 23.5t23.5 9.5h556q13 0 23 -9.5t10 -23.5v-670q0 -13 -10 -23t-23 -10zM488 373q0 -18 -13 -31t-31 -13h-170v-83q0 -11 -10 -17q-4 -2 -9 -2q-6 0 -11 4l-174 127q-8 5 -8 15t8 15
l174 127q10 7 20 1.5t10 -16.5v-83h170q18 0 31 -13t13 -31z" />
    <glyph glyph-name="uniE614" unicode="&#xe614;" 
d="M497 491q-46 0 -83 -28t-49 -72v-1h-1q-5 -18 -7 -62q-4 -76 -23 -119q35 -7 75 -7q76 0 130 20l8 3q40 16 64 51t24 78q0 56 -40.5 96.5t-97.5 40.5zM512 834q-91 0 -174.5 -36t-143.5 -96t-96 -143.5t-36 -174.5t36 -174.5t96 -143.5t143.5 -96t174.5 -36t174.5 36
t143.5 96t96 143.5t36 174.5t-36 174.5t-96 143.5t-143.5 96t-174.5 36zM564 184q-64 -27 -155 -27q-98 0 -142 27q27 33 35.5 72t10.5 81.5t8 65.5q17 58 65.5 95.5t110.5 37.5q76 0 129.5 -53.5t53.5 -128.5q0 -58 -32.5 -104t-83.5 -66zM737 498l-41 -41q-15 31 -40 56
q-23 23 -52 38l40 40q20 20 47 20t46.5 -19.5t19.5 -46.5t-20 -47z" />
    <glyph glyph-name="uniE615" unicode="&#xe615;" 
d="M511.5 833q-90.5 0 -173.5 -35.5t-142.5 -95.5t-95 -143t-35.5 -173.5t35.5 -173.5t95 -142.5t142.5 -95t173.5 -35.5t173.5 35.5t143 95t95.5 142.5t35.5 173.5t-35.5 173.5t-95.5 143t-143 95.5t-173.5 35.5zM509 144q-73 0 -131.5 42t-83.5 108h1q-4 7 -4 14
q0 12 9 21t21 9q22 0 29 -21q18 -50 61.5 -81.5t97.5 -31.5q70 0 119.5 49.5t49.5 119.5t-49.5 119.5t-119.5 49.5q-29 0 -58 -11l21 -40q4 -5 4 -11t-5 -10t-10 -5h-1l-151 7q-8 0 -12 8t0 15l81 127q5 7 13.5 7t12.5 -8l19 -36q41 17 86 17q95 0 162 -67t67 -161.5
t-67 -162t-162 -67.5z" />
    <glyph glyph-name="uniE616" unicode="&#xe616;" 
d="M718 593q-29 29 -104 -3q67 -27 106 -87q24 64 -2 90zM313 300q-47 -92 -13 -125q30 -31 111 6q-71 42 -98 119zM528.5 502q-38.5 0 -66 -26t-29.5 -65h192q-2 39 -30 65t-66.5 26zM512 832q-91 0 -174 -36t-143.5 -96t-96 -143t-35.5 -174.5t35.5 -174.5t95.5 -143
t143.5 -95.5t174.5 -35.5t174.5 35.5t143.5 95.5t95.5 143t35.5 174.5t-35.5 174.5t-95.5 143t-143.5 96t-174.5 36zM756 351h-324q0 -26 12 -48q13 -24 37 -38.5t52 -14.5t52 14.5t37 38.5h124q-24 -69 -83.5 -112t-133.5 -43q-55 0 -104 25q-110 -54 -157 -6
q-16 16 -16.5 52t14 81.5t47 98.5t76.5 98q27 27 34 33q-65 -31 -116 -97q18 75 80 124t142 49h17q58 25 106.5 28.5t66.5 -15.5q41 -41 8 -127q31 -53 31 -115q0 -14 -2 -26z" />
  </font>
</defs>
</svg>
